Coordinates
version=1
nRows=13
nColumns=38
inDegrees=yes

Units are S.I. units (second, meters, Newtons, ...)
Angles are in degrees.

endheader
time	pelvis_tilt	pelvis_list	pelvis_rotation	pelvis_tx	pelvis_ty	pelvis_tz	hip_flexion_r	hip_adduction_r	hip_rotation_r	knee_angle_r	ankle_angle_r	subtalar_angle_r	mtp_angle_r	hip_flexion_l	hip_adduction_l	hip_rotation_l	knee_angle_l	ankle_angle_l	subtalar_angle_l	mtp_angle_l	lumbar_extension	lumbar_bending	lumbar_rotation	arm_flex_r	arm_add_r	arm_rot_r	elbow_flex_r	pro_sup_r	wrist_flex_r	wrist_dev_r	arm_flex_l	arm_add_l	arm_rot_l	elbow_flex_l	pro_sup_l	wrist_flex_l	wrist_dev_l
      1.91000000	      0.72900189	     -2.97585966	     -4.45129048	      0.65858956	      0.94891789	     -0.23691295	    -15.30279833	      6.88130403	      1.85474545	    -19.97753971	     11.89248775	     -4.19502062	      0.00000000	     27.17008763	     -2.46774960	     -8.41230375	    -14.68819568	      1.88924470	     -2.48343249	      0.00000000	    -10.81505478	      1.67144093	      7.80380614	      7.13459267	    -16.45389049	     21.23319746	     64.99395897	     44.03525564	      0.00000000	      0.00000000	    -11.36695546	     -7.82286001	     36.80415579	     21.73405132	     44.03525564	      0.00000000	      0.00000000
      1.92000000	      0.66120093	     -2.54519523	     -4.48133966	      0.67454958	      0.94886601	     -0.23788592	    -15.22519190	      6.15634302	      1.21181089	    -21.59441166	     10.37228106	     -3.58907296	      0.00000000	     27.06301824	     -2.06654467	     -9.96473450	    -15.85472245	     -0.01870975	     -2.77469942	      0.00000000	    -10.51269633	      1.12980787	      7.74613761	      6.62510921	    -16.22522515	     21.28657129	     64.85525721	     44.04514160	      0.00000000	      0.00000000	    -11.45284384	     -7.83484726	     36.79105732	     21.65300914	     44.04514160	      0.00000000	      0.00000000
      1.93000000	      0.63947693	     -2.12269030	     -4.34879086	      0.69043106	      0.94948602	     -0.23909755	    -15.09735517	      5.44932302	      0.36318755	    -23.23226286	      8.23928300	     -3.10297999	      0.00000000	     26.89316389	     -1.68141684	    -10.88131820	    -16.45881792	     -1.15460228	     -3.04614649	      0.00000000	    -10.31293984	      0.60661924	      7.53710430	      6.10151252	    -15.96644209	     21.38345585	     64.69284054	     44.04930811	      0.00000000	      0.00000000	    -11.52824479	     -7.84404920	     36.78806433	     21.61140041	     44.04930811	      0.00000000	      0.00000000
      1.94000000	      0.36249925	     -1.27660940	     -4.17039741	      0.70615051	      0.94995890	     -0.24094788	    -14.02146974	      3.91099001	     -1.92456808	    -26.07424200	      6.76238471	      0.02191935	      0.00000000	     26.53815889	     -0.52486959	    -10.46352913	    -16.35479225	     -2.91505317	     -4.19728302	      0.00000000	     -9.78890560	     -0.31632089	      7.05815179	      5.56244391	    -15.52240305	     21.22847992	     63.92281908	     44.06983309	      0.00000000	      0.00000000	    -11.42311311	     -7.88472339	     36.77988493	     21.53963701	     44.06983309	      0.00000000	      0.00000000
      1.95000000	      0.39432181	     -0.84233570	     -3.83531109	      0.72197510	      0.95126053	     -0.24280279	    -13.53340898	      3.09377100	     -2.98819570	    -28.21810867	      3.70092681	      0.57319177	      0.00000000	     26.04299124	      0.06780729	    -10.43215523	    -17.10574006	     -4.51094741	     -3.69955486	      0.00000000	     -9.68478131	     -0.76827241	      6.71078535	      4.98101767	    -15.26645074	     21.29777349	     63.59722996	     44.07611764	      0.00000000	      0.00000000	    -11.28785666	     -7.87387049	     36.78678373	     21.56222244	     44.07611764	      0.00000000	      0.00000000
      1.96000000	      0.40292752	     -0.13432994	     -3.62233201	      0.73758239	      0.95269497	     -0.24461428	    -12.56171828	      1.54363598	     -5.03095511	    -31.11023994	      0.55520604	      2.76509460	      0.00000000	     25.52934008	      1.21658787	     -8.74632667	    -17.71234709	     -5.44484275	     -5.65657380	      0.00000000	     -9.51323352	     -1.54368086	      6.26329438	      4.56941832	    -14.71547936	     21.13980758	     62.28001368	     44.10961799	      0.00000000	      0.00000000	    -11.09318489	     -7.89220014	     36.88317872	     21.58755539	     44.10961799	      0.00000000	      0.00000000
      1.97000000	      0.47757943	      0.36826810	     -3.39256562	      0.75300060	      0.95425561	     -0.24620239	    -11.61812738	      0.53315738	     -5.75422356	    -33.84652510	     -3.48880993	      3.01478393	      0.00000000	     25.19420596	      2.02255149	     -7.59031745	    -18.94750998	     -4.87508399	     -6.39550660	      0.00000000	     -9.47386556	     -2.09980750	      5.92227006	      3.93153561	    -14.45708113	     21.25325027	     61.89686170	     44.11635828	      0.00000000	      0.00000000	    -10.75477016	     -7.92626745	     36.90015114	     21.67365084	     44.11635828	      0.00000000	      0.00000000
      1.98000000	      0.46691836	      0.96632926	     -3.20347090	      0.76802166	      0.95560723	     -0.24789533	    -10.27489681	     -0.80157121	     -6.67070698	    -37.06644464	     -6.95772163	      4.53647181	      0.00000000	     24.75704330	      3.23354839	     -5.56925542	    -19.76291042	     -5.14238880	     -9.27399205	      0.00000000	     -9.35726731	     -2.73479349	      5.55943722	      3.48295567	    -14.01555381	     21.26769641	     60.78359367	     44.13990455	      0.00000000	      0.00000000	    -10.41592339	     -7.97904648	     37.04072770	     21.87315922	     44.13990455	      0.00000000	      0.00000000
      1.99000000	      0.48375146	      1.56235111	     -3.01792765	      0.78296663	      0.95685145	     -0.24958614	     -8.85211019	     -1.99990007	     -7.05381305	    -40.39138547	     -9.55162189	      5.35585038	      0.00000000	     24.28192704	      4.32289701	     -4.32301368	    -20.63770154	     -4.67435311	    -10.78275595	      0.00000000	     -9.27031184	     -3.35518302	      5.17693847	      2.97288304	    -13.66043199	     21.38484028	     59.92409032	     44.15988534	      0.00000000	      0.00000000	     -9.99951324	     -8.03704174	     37.16751590	     22.10907038	     44.15988534	      0.00000000	      0.00000000
      2.00000000	      0.49893986	      2.04359574	     -2.82524685	      0.79715022	      0.95811881	     -0.25094346	     -7.15005260	     -2.82517411	     -6.94940516	    -43.99914059	    -12.08992799	      4.83403730	      0.00000000	     23.77835894	      5.11125053	     -3.83804125	    -21.37658628	     -3.86658135	    -11.35759014	      0.00000000	     -9.30723729	     -3.87352252	      4.82115480	      2.43175416	    -13.38233923	     21.52501828	     59.52606148	     44.16601075	      0.00000000	      0.00000000	     -9.42368573	     -8.09451254	     37.19182487	     22.30001177	     44.16601075	      0.00000000	      0.00000000
      2.01000000	      0.53997945	      2.56341410	     -2.72856116	      0.81111753	      0.95934160	     -0.25230815	     -5.29470931	     -3.95616923	     -7.26214353	    -47.80400205	    -14.16728708	      4.15068098	      0.00000000	     23.20943405	      5.90339328	     -3.69101824	    -21.97998683	     -2.97410475	    -11.97152016	      0.00000000	     -9.39719737	     -4.39191399	      4.43777999	      1.97749168	    -13.11279283	     21.64217194	     59.15647929	     44.17000716	      0.00000000	      0.00000000	     -8.81034359	     -8.08799621	     37.21469837	     22.51937906	     44.17000716	      0.00000000	      0.00000000
      2.02000000	      0.28271830	      3.25144331	     -2.59873908	      0.82465271	      0.96022823	     -0.25385065	     -3.04410824	     -5.64606956	     -8.35293434	    -51.52467576	    -15.50482089	      2.83026358	      0.00000000	     22.68624038	      6.88442763	     -3.11464907	    -22.10482522	     -2.28095258	    -12.25695455	      0.00000000	     -9.15924285	     -5.07075898	      4.01915490	      1.43546255	    -12.80926453	     21.76583083	     58.45704198	     44.17660667	      0.00000000	      0.00000000	     -8.14897892	     -8.21154568	     37.27608767	     22.81969529	     44.17660667	      0.00000000	      0.00000000
      2.03000000	      0.09552886	      3.85972524	     -2.48256586	      0.83783174	      0.96135243	     -0.25520522	     -0.96351141	     -6.98548112	     -9.01134429	    -54.81986898	    -15.65914273	      0.39577710	      0.00000000	     22.02887242	      7.70479802	     -3.29844831	    -21.95396636	     -1.76471872	    -12.64740301	      0.00000000	     -9.04155157	     -5.67500367	      3.59776332	      1.09555904	    -12.43100390	     21.90265825	     57.48853493	     44.18566518	      0.00000000	      0.00000000	     -7.46164803	     -8.33708337	     37.39692055	     23.23624241	     44.18566518	      0.00000000	      0.00000000
